Motion_pl02
version=1
nRows=16
nColumns=43
inDegrees=yes
endheader
time	pelvis_tilt	pelvis_list	pelvis_rotation	pelvis_tx	pelvis_ty	pelvis_tz	hip_flexion_r	hip_adduction_r	hip_rotation_r	knee_angle_r	ankle_angle_r	subtalar_angle_r	mtp_angle_r	hip_flexion_l	hip_adduction_l	hip_rotation_l	knee_angle_l	ankle_angle_l	subtalar_angle_l	mtp_angle_l	lumbar_extension	lumbar_bending	lumbar_rotation	neck_flexion	neck_lateral_bending	neck_rotation	arm_flex_r	arm_add_r	arm_rot_r	elbow_flex_r	pro_sup_r	wrist_flex_r	wrist_dev_r	hand_finger_flex_r	arm_flex_l	arm_add_l	arm_rot_l	elbow_flex_l	pro_sup_l	wrist_flex_l	wrist_dev_l	hand_finger_flex_l
      1.67750000	     -3.87578119	    -22.32700728	     90.35313604	      0.01487736	      1.71713576	      1.79889434	     98.81028991	    -11.31367840	      7.57863489	   -115.27428994	     11.01430953	     20.39629128	     11.73871404	     94.03451388	    -12.47101629	      0.58118580	   -112.42945202	     27.83655917	     24.80907678	     17.23020737	    -39.03883196	     -5.77772003	      0.41784150	     11.23442895	      4.50061011	     -4.48871173	     41.45562657	    -71.80636941	    -62.20720837	    106.51045889	    141.65408183	     19.49893006	     26.35986380	    -20.74670254	     45.00061738	    -70.66823299	    -50.12088362	    109.08652337	    137.43611699	      1.05408407	     33.33824004	      9.68949071
      1.68000000	     -3.87591107	    -22.33015309	     90.35251790	      0.01493650	      1.71715831	      1.79884715	     98.81065988	    -11.31339172	      7.57926509	   -115.27741957	     11.01413890	     20.39630079	     11.73877088	     94.03423915	    -12.47103819	      0.58235986	   -112.42956934	     27.83657468	     24.80891606	     17.23025122	    -39.04109857	     -5.77658925	      0.41760893	     11.23427100	      4.50099049	     -4.48894239	     41.45551580	    -71.80630659	    -62.20747314	    106.51180422	    141.65391111	     19.49873879	     26.35967086	    -20.74666312	     45.00104313	    -70.66804476	    -50.12140032	    109.08746583	    137.43609594	      1.05367021	     33.33817038	      9.68930376
      1.68250000	     -3.86368795	    -22.42612444	     90.37607104	      0.01543846	      1.71690117	      1.79858988	     98.89583565	    -11.22653479	      7.54679530	   -115.34894711	     11.10587807	     20.43600975	     11.78852544	     94.14515609	    -12.37220244	      0.84891098	   -112.46038050	     27.86606461	     24.76503390	     17.27106937	    -39.01469818	     -5.80035514	      0.32280112	     11.37629107	      4.66012859	     -4.63494990	     41.30047844	    -71.44965589	    -62.58856566	    106.96240031	    141.52767139	     19.43717065	     26.34621070	    -20.67474602	     45.08281191	    -70.45990052	    -50.48889254	    109.24930458	    137.39114045	      0.80419619	     33.36252567	      9.55118878
      1.68500000	     -3.86232341	    -22.42693502	     90.37555553	      0.01550518	      1.71691431	      1.79856973	     98.89619067	    -11.22711942	      7.54761722	   -115.34890397	     11.10584030	     20.43613003	     11.78856117	     94.14486451	    -12.37243950	      0.84878836	   -112.46032847	     27.86603383	     24.76503472	     17.27109476	    -39.01505869	     -5.80001584	      0.32267030	     11.37632845	      4.66018767	     -4.63497638	     41.30034900	    -71.44996631	    -62.58871291	    106.96259197	    141.52759244	     19.43712137	     26.34614033	    -20.67470130	     45.08251100	    -70.46016576	    -50.48863882	    109.24973922	    137.39106176	      0.80408123	     33.36239042	      9.55111196
      1.68750000	     -3.86062756	    -22.42840616	     90.37514441	      0.01557654	      1.71692232	      1.79854364	     98.89649290	    -11.22774817	      7.54878218	   -115.34908451	     11.10576124	     20.43629343	     11.78859813	     94.14444503	    -12.37284577	      0.84876869	   -112.46026153	     27.86600141	     24.76502008	     17.27112057	    -39.01584647	     -5.79971774	      0.32255858	     11.37632759	      4.66024742	     -4.63500580	     41.30019344	    -71.45027745	    -62.58884124	    106.96284032	    141.52750890	     19.43706784	     26.34606571	    -20.67465481	     45.08216353	    -70.46040757	    -50.48834699	    109.25020668	    137.39098272	      0.80396090	     33.36225498	      9.55102971
      1.69000000	     -3.85843989	    -22.43030332	     90.37485839	      0.01565502	      1.71692640	      1.79851405	     98.89678399	    -11.22843106	      7.55039710	   -115.34934323	     11.10563970	     20.43652471	     11.78863592	     94.14392056	    -12.37341655	      0.84886458	   -112.46018193	     27.86597055	     24.76498833	     17.27114662	    -39.01692865	     -5.79953532	      0.32243355	     11.37629140	      4.66030501	     -4.63503948	     41.30002136	    -71.45059857	    -62.58896693	    106.96315346	    141.52742348	     19.43700731	     26.34599078	    -20.67460800	     45.08178216	    -70.46062493	    -50.48803605	    109.25069143	    137.39090710	      0.80383690	     33.36212526	      9.55094292
      1.69250000	     -3.85575489	    -22.43239926	     90.37476676	      0.01573757	      1.71692685	      1.79848072	     98.89712299	    -11.22911815	      7.55244573	   -115.34953682	     11.10547826	     20.43683223	     11.78867442	     94.14331594	    -12.37414127	      0.84908752	   -112.46009198	     27.86594385	     24.76493773	     17.27117298	    -39.01819599	     -5.79952783	      0.32226498	     11.37622240	      4.66035916	     -4.63507881	     41.29983788	    -71.45093687	    -62.58910307	    106.96353931	    141.52733744	     19.43693766	     26.34591823	    -20.67456160	     45.08137670	    -70.46081939	    -50.48772132	    109.25118083	    137.39083812	      0.80370993	     33.36200578	      9.55085168
      1.69500000	     -3.85266231	    -22.43457402	     90.37492124	      0.01581929	      1.71692508	      1.79844445	     98.89752470	    -11.22974201	      7.55485118	   -115.34961076	     11.10528207	     20.43721179	     11.78871385	     94.14265123	    -12.37500533	      0.84944550	   -112.45999662	     27.86592325	     24.76486688	     17.27119994	    -39.01957453	     -5.79971354	      0.32202678	     11.37612095	      4.66041136	     -4.63512546	     41.29964506	    -71.45129695	    -62.58926125	    106.96400466	    141.52725054	     19.43685784	     26.34585039	    -20.67451536	     45.08095366	    -70.46099499	    -50.48741353	    109.25166998	    137.39077838	      0.80357923	     33.36189942	      9.55075504
      1.69750000	     -3.84927630	    -22.43676085	     90.37535452	      0.01589600	      1.71692421	      1.79840544	     98.89800498	    -11.23023971	      7.55751442	   -115.34957439	     11.10505308	     20.43765222	     11.78875461	     94.14193933	    -12.37599179	      0.84994160	   -112.45990132	     27.86590979	     24.76477485	     17.27122788	    -39.02101904	     -5.80008609	      0.32169838	     11.37598600	      4.66046548	     -4.63518167	     41.29944483	    -71.45168339	    -62.58945222	    106.96455524	    141.52716172	     19.43676743	     26.34578936	    -20.67446853	     45.08051593	    -70.46115492	    -50.48711931	    109.25215902	    137.39072997	      0.80344351	     33.36180825	      9.55065174
      1.70000000	     -3.84579326	    -22.43900341	     90.37612684	      0.01596222	      1.71692476	      1.79836390	     98.89854937	    -11.23053214	      7.56029170	   -115.34946289	     11.10479616	     20.43813616	     11.78879785	     94.14117259	    -12.37710224	      0.85058617	   -112.45981021	     27.86590353	     24.76465926	     17.27125771	    -39.02253848	     -5.80061963	      0.32126128	     11.37581111	      4.66052905	     -4.63525056	     41.29923794	    -71.45210810	    -62.58969161	    106.96520586	    141.52706792	     19.43666488	     26.34573685	    -20.67441915	     45.08005552	    -70.46130421	    -50.48683725	    109.25266116	    137.39069411	      0.80329878	     33.36173246	      9.55053839
      1.70250000	     -3.84238646	    -22.44136533	     90.37730795	      0.01601511	      1.71692839	      1.79831879	     98.89918126	    -11.23054273	      7.56305666	   -115.34932481	     11.10450579	     20.43864836	     11.78884541	     94.14032548	    -12.37835266	      0.85139769	   -112.45972987	     27.86590441	     24.76451614	     17.27129081	    -39.02417066	     -5.80127330	      0.32068838	     11.37558441	      4.66061397	     -4.63533694	     41.29902869	    -71.45259321	    -62.59000659	    106.96598156	    141.52696529	     19.43654654	     26.34569598	    -20.67436446	     45.07955617	    -70.46144693	    -50.48656218	    109.25320100	    137.39067243	      0.80313852	     33.36167230	      9.55040968
      1.70500000	     -3.83919161	    -22.44405588	     90.37900585	      0.01605367	      1.71693802	      1.79826961	     98.89992734	    -11.23018152	      7.56572642	   -115.34927742	     11.10416323	     20.43918217	     11.78890117	     94.13932866	    -12.37980773	      0.85243092	   -112.45966618	     27.86591259	     24.76433488	     17.27132999	    -39.02603167	     -5.80199583	      0.31992358	     11.37527887	      4.66074206	     -4.63544999	     41.29882233	    -71.45318553	    -62.59045076	    106.96694250	    141.52684647	     19.43640303	     26.34567193	    -20.67429922	     45.07897759	    -70.46158829	    -50.48627809	    109.25383025	    137.39066752	      0.80294937	     33.36162733	      9.55025451
      1.70750000	     -3.83812463	    -22.44489806	     90.37965638	      0.01607261	      1.71694655	      1.79824229	     98.90036416	    -11.22999052	      7.56661168	   -115.34923647	     11.10401292	     20.43936611	     11.78892166	     94.13897108	    -12.38031401	      0.85281872	   -112.45965181	     27.86591779	     24.76426620	     17.27134452	    -39.02672987	     -5.80219245	      0.31960744	     11.37515033	      4.66080392	     -4.63549527	     41.29876727	    -71.45341913	    -62.59064399	    106.96730714	    141.52680362	     19.43634866	     26.34567182	    -20.67427475	     45.07876207	    -70.46162877	    -50.48617873	    109.25406617	    137.39067219	      0.80287999	     33.36161793	      9.55019630
      1.71000000	     -3.83760656	    -22.47620264	     90.42690527	      0.01624023	      1.71702518	      1.79825492	     98.91252575	    -11.20100516	      7.58327033	   -115.34666344	     11.09747514	     20.44723187	     11.79052046	     94.11881729	    -12.41313405	      0.87968436	   -112.45510937	     27.86685072	     24.75935977	     17.27248676	    -39.04389402	     -5.79502383	      0.29215728	     11.36611798	      4.66724831	     -4.63935637	     41.29975826	    -71.47115996	    -62.61494121	    106.99452133	    141.52434008	     19.43157175	     26.34823871	    -20.67242111	     45.06700778	    -70.46822828	    -50.48529743	    109.27495609	    137.39215684	      0.79633666	     33.36189100	      9.54523433
      1.71250000	     -3.83701617	    -22.47543950	     90.42657394	      0.01626756	      1.71703641	      1.79820709	     98.91301467	    -11.20099248	      7.58335987	   -115.34654702	     11.09736104	     20.44729526	     11.79054096	     94.11910251	    -12.41305212	      0.87964879	   -112.45475161	     27.86688212	     24.75934877	     17.27250083	    -39.04385330	     -5.79484715	      0.29172895	     11.36601711	      4.66733170	     -4.63940842	     41.29981576	    -71.47135820	    -62.61533850	    106.99482774	    141.52431676	     19.43151241	     26.34830347	    -20.67239513	     45.06691104	    -70.46834535	    -50.48534666	    109.27516322	    137.39218622	      0.79624822	     33.36190873	      9.54516535
      1.71500000	     -3.83658937	    -22.47553650	     90.42616556	      0.01628807	      1.71704483	      1.79818312	     98.91303411	    -11.20103331	      7.58333318	   -115.34693514	     11.09727870	     20.44732621	     11.79056148	     94.11931708	    -12.41298764	      0.87964367	   -112.45443536	     27.86690983	     24.75933398	     17.27251488	    -39.04407190	     -5.79475693	      0.29130611	     11.36589157	      4.66742697	     -4.63945927	     41.29987894	    -71.47156831	    -62.61573361	    106.99515945	    141.52429134	     19.43145217	     26.34836753	    -20.67236818	     45.06677085	    -70.46840271	    -50.48536833	    109.27534456	    137.39221781	      0.79616829	     33.36193511	      9.54509811
